<svg id="Component_47_1" data-name="Component 47 – 1" xmlns="http://www.w3.org/2000/svg" xmlns:xlink="http://www.w3.org/1999/xlink" width="223" height="314" viewBox="0 0 223 314">
  <defs>
    <clipPath id="clip-path">
      <rect id="Rectangle_20" data-name="Rectangle 20" width="223" height="223" fill="none" stroke="#001000" stroke-width="3"/>
    </clipPath>
  </defs>
  <text id="Průmyslová_chemie" data-name="Průmyslová 
chemie" transform="translate(111 279)" fill="#fff" font-size="27" font-family="Export"><tspan x="-84" y="0">Průmyslová </tspan><tspan x="-46" y="30">chemie</tspan></text>
  <g id="Group_134" data-name="Group 134">
    <g id="Group_133" data-name="Group 133" clip-path="url(#clip-path)">
      <path id="Path_162" data-name="Path 162" d="M109.108,0A109.108,109.108,0,1,1,0,109.108,109.108,109.108,0,0,1,109.108,0Z" transform="translate(2.254 220.469) rotate(-89.927)" fill="#a2cf44" stroke="#001000" stroke-linecap="round" stroke-width="3"/>
      <path id="Path_144" data-name="Path 144" d="M123,160.505H75.155a10.964,10.964,0,0,1-10.964-10.964V44.977A10.965,10.965,0,0,1,75.155,34.012H97.761a23.8,23.8,0,0,1,19.768,10.549l12.409,18.515a23.8,23.8,0,0,1,4.029,13.249v73.217A10.963,10.963,0,0,1,123,160.505Z" transform="translate(38.222 20.252)" fill="none" stroke="#001000" stroke-linecap="round" stroke-linejoin="round" stroke-width="3"/>
      <path id="Path_145" data-name="Path 145" d="M99.382,67.977,87.1,50.286a6,6,0,1,1,9.863-6.848l12.282,17.693a6,6,0,0,1-9.863,6.846Z" transform="translate(51.225 24.329)" fill="none" stroke="#001000" stroke-linecap="round" stroke-linejoin="round" stroke-width="3"/>
      <path id="Rectangle_19" data-name="Rectangle 19" d="M1.392,0H25.7a1.391,1.391,0,0,1,1.391,1.391V15.229A1.392,1.392,0,0,1,25.7,16.621H1.392A1.392,1.392,0,0,1,0,15.229V1.392A1.392,1.392,0,0,1,1.392,0Z" transform="translate(112.127 35.012)" fill="none" stroke="#001000" stroke-linecap="round" stroke-linejoin="round" stroke-width="3"/>
      <path id="Path_146" data-name="Path 146" d="M62.546,63.492a1.841,1.841,0,0,0-1.835-1.844c-3.237-.008-9.838-.022-12.16-.022-3.634,0-12.695-1.342-12.695-11.328,0-8.788,9.375-15.039,9.375-15.039l8.687-4.719,3.96,3.3-2.853,8.839L50.83,46.873A2.5,2.5,0,0,0,52.6,51.14h11.51c5.732,0,11.465,6.007,11.465,12.693v88.992c0,3.685-.546,7.234-2.867,7.234H39.948c-6.414,0-9.431-13.376-9.431-22.794V74.994c0-4.354,4.3-9.657,9.656-9.657H60.7A1.845,1.845,0,0,0,62.546,63.492Z" transform="translate(18.171 18.185)" fill="none" stroke="#001000" stroke-linecap="round" stroke-linejoin="round" stroke-width="3"/>
      <line id="Line_4" data-name="Line 4" x2="9.794" y2="7.42" transform="translate(63.401 53.443)" fill="none" stroke="#001000" stroke-linecap="round" stroke-linejoin="round" stroke-width="3"/>
    </g>
  </g>
</svg>
