<svg id="Component_51_1" data-name="Component 51 – 1" xmlns="http://www.w3.org/2000/svg" xmlns:xlink="http://www.w3.org/1999/xlink" width="223" height="282" viewBox="0 0 223 282">
  <defs>
    <clipPath id="clip-path">
      <rect id="Rectangle_26" data-name="Rectangle 26" width="223" height="223" fill="none" stroke="#001000" stroke-width="1"/>
    </clipPath>
  </defs>
  <text id="služby" transform="translate(110 277)" fill="#fff" font-size="27" font-family="Export"><tspan x="-46" y="0">služby</tspan></text>
  <g id="Group_143" data-name="Group 143">
    <g id="Group_142" data-name="Group 142" clip-path="url(#clip-path)">
      <circle id="Ellipse_11" data-name="Ellipse 11" cx="109.108" cy="109.108" r="109.108" transform="translate(2.254 220.469) rotate(-89.927)" fill="#a2cf44" stroke="#001000" stroke-linecap="round" stroke-linejoin="round" stroke-width="3"/>
      <path id="Path_154" data-name="Path 154" d="M159.45,55.391v52.956H57.672A19.156,19.156,0,0,1,38.517,89.19v-33.8H23.494v84.378H35.26l3.256-16.4H159.45l3,16.4h12.018V55.391Z" transform="translate(13.989 32.982)" fill="none" stroke="#001000" stroke-linecap="round" stroke-linejoin="round" stroke-width="3"/>
      <path id="Path_155" data-name="Path 155" d="M59.19,85.8a6.291,6.291,0,0,1,3.445-5.618A77.565,77.565,0,0,1,97.57,72.127a78.58,78.58,0,0,1,30.708,6.1,6.255,6.255,0,0,1,3.773,5.768V85.8a6.279,6.279,0,0,1-6.28,6.28H65.47A6.279,6.279,0,0,1,59.19,85.8Z" transform="translate(35.244 42.948)" fill="none" stroke="#001000" stroke-linecap="round" stroke-linejoin="round" stroke-width="3"/>
      <path id="Path_156" data-name="Path 156" d="M63.065,90.43c-2.931,4.431-10.97,4.277-17.957-.343S34.835,78.129,37.766,73.7s10.969-4.279,17.955.341S66,86,63.065,90.43Z" transform="translate(21.849 41.962)" fill="none" stroke="#001000" stroke-linecap="round" stroke-linejoin="round" stroke-width="3"/>
      <path id="Path_157" data-name="Path 157" d="M52.506,25.777l3.885,11.956a.588.588,0,0,0,.56.407H69.521a.588.588,0,0,1,.346,1.064L59.7,46.593a.592.592,0,0,0-.214.659l3.885,11.956a.588.588,0,0,1-.9.657l-10.171-7.39a.589.589,0,0,0-.692,0L41.43,59.865a.589.589,0,0,1-.906-.657l3.885-11.956a.589.589,0,0,0-.214-.659L34.026,39.2a.588.588,0,0,1,.345-1.064H46.943a.59.59,0,0,0,.56-.407l3.885-11.956A.588.588,0,0,1,52.506,25.777Z" transform="translate(20.115 15.106)" fill="none" stroke="#001000" stroke-linecap="round" stroke-linejoin="round" stroke-width="3"/>
      <path id="Path_158" data-name="Path 158" d="M78.547,18.312l3.885,11.956a.588.588,0,0,0,.56.407H95.562a.588.588,0,0,1,.346,1.064L85.738,39.128a.592.592,0,0,0-.214.659l3.885,11.956a.588.588,0,0,1-.9.657L78.333,45.01a.589.589,0,0,0-.692,0L67.471,52.4a.589.589,0,0,1-.906-.657L70.45,39.787a.589.589,0,0,0-.214-.659L60.067,31.739a.588.588,0,0,1,.345-1.064H72.984a.59.59,0,0,0,.56-.407l3.883-11.956A.589.589,0,0,1,78.547,18.312Z" transform="translate(35.621 10.661)" fill="none" stroke="#001000" stroke-linecap="round" stroke-linejoin="round" stroke-width="3"/>
      <path id="Path_159" data-name="Path 159" d="M103.731,26.488l3.885,11.956a.588.588,0,0,0,.56.407h12.57a.588.588,0,0,1,.346,1.064L110.922,47.3a.592.592,0,0,0-.214.659l3.885,11.956a.588.588,0,0,1-.9.657l-10.171-7.39a.589.589,0,0,0-.692,0l-10.169,7.39a.589.589,0,0,1-.906-.657l3.885-11.956a.589.589,0,0,0-.214-.659L85.251,39.915a.588.588,0,0,1,.345-1.064H98.168a.59.59,0,0,0,.56-.407l3.883-11.956A.589.589,0,0,1,103.731,26.488Z" transform="translate(50.617 15.53)" fill="none" stroke="#001000" stroke-linecap="round" stroke-linejoin="round" stroke-width="3"/>
    </g>
  </g>
</svg>
