<svg id="Component_50_1" data-name="Component 50 – 1" xmlns="http://www.w3.org/2000/svg" xmlns:xlink="http://www.w3.org/1999/xlink" width="223" height="282" viewBox="0 0 223 282">
  <defs>
    <clipPath id="clip-path">
      <rect id="Rectangle_25" data-name="Rectangle 25" width="223" height="223" fill="none" stroke="#001000" stroke-width="1"/>
    </clipPath>
  </defs>
  <text id="Obuv_a_Textil" data-name="Obuv a Textil" transform="translate(111 277)" fill="#fff" font-size="27" font-family="Export"><tspan x="-90" y="0">Obuv a Textil</tspan></text>
  <g id="Group_141" data-name="Group 141">
    <g id="Group_140" data-name="Group 140" clip-path="url(#clip-path)">
      <path id="Path_165" data-name="Path 165" d="M109.108,0A109.108,109.108,0,1,1,0,109.108,109.108,109.108,0,0,1,109.108,0Z" transform="translate(2.254 220.469) rotate(-89.927)" fill="#a2cf44" stroke="#001000" stroke-linecap="round" stroke-width="3"/>
      <path id="Path_153" data-name="Path 153" d="M190.824,70.61,157.36,38.993a14.5,14.5,0,0,0-7.373-3.727L123.694,30.5c0,6.276-8.3,17.874-20.639,19.681h-.6C90.115,48.376,81.817,36.778,81.817,30.5L55.524,35.266a14.5,14.5,0,0,0-7.373,3.727L14.687,70.61,39.369,94.546,57.911,78.807v83.748h89.212V78.4l19.019,16.143Z" transform="translate(8.745 18.162)" fill="none" stroke="#001000" stroke-linecap="round" stroke-linejoin="round" stroke-width="3"/>
    </g>
  </g>
</svg>
