<svg id="Group_135" data-name="Group 135" xmlns="http://www.w3.org/2000/svg" xmlns:xlink="http://www.w3.org/1999/xlink" width="223" height="223" viewBox="0 0 223 223">
  <defs>
    <clipPath id="clip-path">
      <rect id="Rectangle_22" data-name="Rectangle 22" width="223" height="223" fill="none" stroke="#a2cf44" stroke-width="3"/>
    </clipPath>
  </defs>
  <g id="Group_135-2" data-name="Group 135" clip-path="url(#clip-path)">
    <circle id="Ellipse_4" data-name="Ellipse 4" cx="109.108" cy="109.108" r="109.108" transform="translate(2.254 220.469) rotate(-89.927)" fill="none" stroke="#a2cf44" stroke-linecap="round" stroke-linejoin="round" stroke-width="3"/>
    <path id="Path_147" data-name="Path 147" d="M55.885,44.234V57.119a2.6,2.6,0,0,0,1.5,2.385A21.746,21.746,0,0,1,70.244,79.35V88.22" transform="translate(33.276 26.339)" fill="none" stroke="#a2cf44" stroke-linecap="round" stroke-linejoin="round" stroke-width="3"/>
    <path id="Path_148" data-name="Path 148" d="M75.8,154.591a.91.91,0,0,0,.016.207h-35.4A2.816,2.816,0,0,1,37.6,151.99V79.35A21.748,21.748,0,0,1,50.46,59.5a2.6,2.6,0,0,0,1.5-2.385V44.234" transform="translate(22.391 26.339)" fill="none" stroke="#a2cf44" stroke-linecap="round" stroke-linejoin="round" stroke-width="3"/>
    <path id="Path_149" data-name="Path 149" d="M63.983,48.238H45.505V40.881A3.982,3.982,0,0,1,49.487,36.9H60a3.982,3.982,0,0,1,3.982,3.982Z" transform="translate(27.096 21.971)" fill="none" stroke="#a2cf44" stroke-linecap="round" stroke-linejoin="round" stroke-width="3"/>
    <path id="Path_150" data-name="Path 150" d="M101.591,91.369v51.212a4.675,4.675,0,0,1-4.675,4.675H66.2a4.644,4.644,0,0,1-4.643-4.467.91.91,0,0,1-.016-.207V91.369a17.148,17.148,0,0,1,1.631-7.3l3.7-7.861L71.6,66.161A3.059,3.059,0,0,1,74.368,64.4h14.4a3.059,3.059,0,0,1,2.768,1.757l8.424,17.91A17.148,17.148,0,0,1,101.591,91.369Z" transform="translate(36.647 38.349)" fill="none" stroke="#a2cf44" stroke-linecap="round" stroke-linejoin="round" stroke-width="3"/>
    <path id="Rectangle_21" data-name="Rectangle 21" d="M1.8,0H22a1.8,1.8,0,0,1,1.8,1.8V8.9a1.8,1.8,0,0,1-1.8,1.8H1.8A1.8,1.8,0,0,1,0,8.9V1.8A1.8,1.8,0,0,1,1.8,0Z" transform="translate(106.287 84.263)" fill="none" stroke="#a2cf44" stroke-linecap="round" stroke-linejoin="round" stroke-width="3"/>
    <line id="Line_5" data-name="Line 5" y1="7.788" transform="translate(110.235 94.965)" fill="none" stroke="#a2cf44" stroke-linecap="round" stroke-linejoin="round" stroke-width="3"/>
    <line id="Line_6" data-name="Line 6" y2="7.788" transform="translate(126.131 94.965)" fill="none" stroke="#a2cf44" stroke-linecap="round" stroke-linejoin="round" stroke-width="3"/>
    <line id="Line_7" data-name="Line 7" x1="29.583" transform="translate(131.89 112.585)" fill="none" stroke="#a2cf44" stroke-linecap="round" stroke-linejoin="round" stroke-width="3"/>
    <line id="Line_8" data-name="Line 8" x1="23.333" transform="translate(138.417 132.029)" fill="none" stroke="#a2cf44" stroke-linecap="round" stroke-linejoin="round" stroke-width="3"/>
    <line id="Line_9" data-name="Line 9" x1="39.861" transform="translate(98.141 130.085)" fill="none" stroke="#a2cf44" stroke-linecap="round" stroke-linejoin="round" stroke-width="3"/>
    <line id="Line_10" data-name="Line 10" x1="39.167" transform="translate(98.696 152.029)" fill="none" stroke="#a2cf44" stroke-linecap="round" stroke-linejoin="round" stroke-width="3"/>
    <line id="Line_11" data-name="Line 11" x1="39.444" transform="translate(59.808 123.14)" fill="none" stroke="#a2cf44" stroke-linecap="round" stroke-linejoin="round" stroke-width="3"/>
    <line id="Line_12" data-name="Line 12" x1="37.638" transform="translate(60.225 141.196)" fill="none" stroke="#a2cf44" stroke-linecap="round" stroke-linejoin="round" stroke-width="3"/>
    <path id="Path_151" data-name="Path 151" d="M89.592,155.326h19.669a3.526,3.526,0,0,0,3.526-3.526V80.883a15.26,15.26,0,0,0-8.493-13.675,2.256,2.256,0,0,1-1.23-2.028v-22a1.6,1.6,0,0,0-1.6-1.6H93.275a1.6,1.6,0,0,0-1.6,1.6V65.311a2.257,2.257,0,0,1-1.195,2.01,15.27,15.27,0,0,0-8.25,13.561v4.584" transform="translate(48.964 24.758)" fill="none" stroke="#a2cf44" stroke-linecap="round" stroke-linejoin="round" stroke-width="3"/>
    <circle id="Ellipse_5" data-name="Ellipse 5" cx="6.958" cy="6.958" r="6.958" transform="translate(112.897 56.591)" fill="none" stroke="#a2cf44" stroke-linecap="round" stroke-linejoin="round" stroke-width="3"/>
    <circle id="Ellipse_6" data-name="Ellipse 6" cx="5.091" cy="5.091" r="5.091" transform="translate(122.74 39.79)" fill="none" stroke="#a2cf44" stroke-linecap="round" stroke-linejoin="round" stroke-width="3"/>
    <circle id="Ellipse_7" data-name="Ellipse 7" cx="10.522" cy="10.522" r="10.522" transform="translate(94.738 30.286)" fill="none" stroke="#a2cf44" stroke-linecap="round" stroke-linejoin="round" stroke-width="3"/>
  </g>
</svg>
