<svg xmlns="http://www.w3.org/2000/svg" xmlns:xlink="http://www.w3.org/1999/xlink" width="223" height="223" viewBox="0 0 223 223">
  <defs>
    <clipPath id="clip-path">
      <rect id="Rectangle_18" data-name="Rectangle 18" width="223" height="223" fill="none" stroke="#a2cf44" stroke-width="1"/>
    </clipPath>
  </defs>
  <g id="Group_131" data-name="Group 131" clip-path="url(#clip-path)">
    <circle id="Ellipse_2" data-name="Ellipse 2" cx="108.862" cy="108.862" r="108.862" transform="translate(2.298 220.022) rotate(-89.927)" fill="none" stroke="#a2cf44" stroke-linecap="round" stroke-linejoin="round" stroke-width="3"/>
    <path id="Path_139" data-name="Path 139" d="M41.114,96.353a36.975,36.975,0,0,1,34.008,51.458h33.518a36.956,36.956,0,0,1,42.394-50.491V41.491H32.832V97.3A36.983,36.983,0,0,1,41.114,96.353Z" transform="translate(19.481 24.605)" fill="none" stroke="#a2cf44" stroke-linecap="round" stroke-linejoin="round" stroke-width="3"/>
    <path id="Path_140" data-name="Path 140" d="M68.561,124.477A31.658,31.658,0,0,0,34.353,80.212a35.381,35.381,0,0,0,34.207,44.265Z" transform="translate(19.71 47.252)" fill="none" stroke="#a2cf44" stroke-linecap="round" stroke-linejoin="round" stroke-width="3"/>
    <path id="Path_141" data-name="Path 141" d="M85.7,124.477a31.658,31.658,0,0,1,34.207-44.265A35.381,35.381,0,0,1,85.7,124.477Z" transform="translate(49.134 47.252)" fill="none" stroke="#a2cf44" stroke-linecap="round" stroke-linejoin="round" stroke-width="3"/>
    <path id="Path_142" data-name="Path 142" d="M32.56,51.6H56.4a7.158,7.158,0,0,1,6.948,7.35v7.184A7.16,7.16,0,0,1,56.4,73.484H32.56" transform="translate(20.32 30.588)" fill="none" stroke="#a2cf44" stroke-linecap="round" stroke-linejoin="round" stroke-width="3"/>
    <path id="Path_143" data-name="Path 143" d="M118.661,73.484H94.818a7.158,7.158,0,0,1-6.948-7.35V58.95A7.16,7.16,0,0,1,94.818,51.6h23.843" transform="translate(51.055 30.588)" fill="none" stroke="#a2cf44" stroke-linecap="round" stroke-linejoin="round" stroke-width="3"/>
  </g>
</svg>
