<?xml version="1.0" encoding="UTF-8"?>
<svg id="SVGDoc" width="141" height="136" xmlns="http://www.w3.org/2000/svg" version="1.1" xmlns:xlink="http://www.w3.org/1999/xlink" xmlns:avocode="https://avocode.com/" viewBox="0 0 141 136"><defs></defs><desc>Generated with Avocode.</desc><g><g clip-path="url(#clip-2ee99546-49b4-4364-a3dc-8ad0eae4bf55)"><title>Path 135</title><path d="M100.43058,19.16571c0,9.05884 -21.82048,16.40234 -48.73922,16.40234c-26.91715,0 -48.73762,-7.3435 -48.73762,-16.40234c0,-9.05885 21.82047,-16.40234 48.73762,-16.40234c26.91874,0 48.73922,7.34349 48.73922,16.40234z" fill-opacity="0" fill="#ffffff" stroke-dashoffset="0" stroke-linejoin="round" stroke-linecap="round" stroke-opacity="1" stroke="#a2cf44" stroke-miterlimit="20" stroke-width="3"></path></g><g clip-path="url(#clip-2ee99546-49b4-4364-a3dc-8ad0eae4bf55)"><title>Path 136</title><path d="M69.47489,19.16571c0,2.94535 -7.9609,5.33219 -17.78194,5.33219c-9.82104,0 -17.78352,-2.38684 -17.78352,-5.33219c0,-2.94536 7.96248,-5.3322 17.78352,-5.3322c9.82104,0 17.78194,2.38684 17.78194,5.3322z" fill-opacity="0" fill="#ffffff" stroke-dashoffset="0" stroke-linejoin="round" stroke-linecap="round" stroke-opacity="1" stroke="#a2cf44" stroke-miterlimit="20" stroke-width="3"></path></g><g clip-path="url(#clip-2ee99546-49b4-4364-a3dc-8ad0eae4bf55)"><title>Line 1</title><path d="M51.69662,133.87931v-3.97806" fill-opacity="0" fill="#ffffff" stroke-dashoffset="0" stroke-linejoin="round" stroke-linecap="round" stroke-opacity="1" stroke="#a2cf44" stroke-miterlimit="20" stroke-width="3"></path></g><g clip-path="url(#clip-2ee99546-49b4-4364-a3dc-8ad0eae4bf55)"><title>Line 2</title><path d="M51.69662,122.25335v-72.65532" fill-opacity="0" fill="#ffffff" stroke-dashoffset="0" stroke-dasharray="4.806000232696533 4.806000232696533" stroke-linejoin="round" stroke-linecap="round" stroke-opacity="1" stroke="#a2cf44" stroke-miterlimit="20" stroke-width="3"></path></g><g clip-path="url(#clip-2ee99546-49b4-4364-a3dc-8ad0eae4bf55)"><title>Line 3</title><path d="M51.69662,45.7732v-3.97806" fill-opacity="0" fill="#ffffff" stroke-dashoffset="0" stroke-linejoin="round" stroke-linecap="round" stroke-opacity="1" stroke="#a2cf44" stroke-miterlimit="20" stroke-width="3"></path></g><g clip-path="url(#clip-2ee99546-49b4-4364-a3dc-8ad0eae4bf55)"><title>Path 137</title><path d="M134.11998,117.22812h-28.07715v0v-102.84722v0h28.07715c2.64461,0 4.7896,2.14497 4.7896,4.78959v93.26805c0,2.64621 -2.14499,4.78958 -4.7896,4.78958z" fill-opacity="0" fill="#ffffff" stroke-dashoffset="0" stroke-linejoin="round" stroke-linecap="round" stroke-opacity="1" stroke="#a2cf44" stroke-miterlimit="20" stroke-width="3"></path></g><g clip-path="url(#clip-2ee99546-49b4-4364-a3dc-8ad0eae4bf55)"><title>Path 138</title><path d="M100.37169,30.32178v0v89.58595c-6.73087,8.11523 -25.98469,13.97095 -48.67554,13.97095c-22.83407,0 -42.16745,-5.91934 -48.78695,-14.11415v-89.5223c8.704,6.82635 27.27359,11.55229 48.78695,11.55229c21.40197,0 39.90791,-4.67819 48.67554,-11.47273z" fill-opacity="0" fill="#ffffff" stroke-dashoffset="0" stroke-linejoin="round" stroke-linecap="round" stroke-opacity="1" stroke="#a2cf44" stroke-miterlimit="20" stroke-width="3"></path></g></g></svg>