<?xml version="1.0" encoding="UTF-8"?>
<svg id="SVGDoc" width="123" height="111" xmlns="http://www.w3.org/2000/svg" version="1.1" xmlns:xlink="http://www.w3.org/1999/xlink" xmlns:avocode="https://avocode.com/" viewBox="0 0 123 111"><defs></defs><desc>Generated with Avocode.</desc><g><g clip-path="url(#clip-ffd7905b-80e8-4bb7-9d03-6cda39fdcd0f)"><title>Path 139</title><path d="M10.59504,56.9583c20.41558,0 36.96294,16.54893 36.96294,36.96136c0,5.14645 -1.0554,10.04462 -2.9545,14.49704h33.51817c-1.89909,-4.45242 -2.9529,-9.35059 -2.9529,-14.49704c0,-20.41242 16.54738,-36.96136 36.95976,-36.96136c2.88763,0 5.69247,0.34225 8.38751,0.96785v-55.82965v0h-118.20343v0v55.80576c2.66478,-0.61128 5.43301,-0.94396 8.28244,-0.94396z" fill-opacity="0" fill="#ffffff" stroke-dashoffset="0" stroke-linejoin="round" stroke-linecap="round" stroke-opacity="1" stroke="#a2cf44" stroke-miterlimit="20" stroke-width="3"></path></g><g clip-path="url(#clip-ffd7905b-80e8-4bb7-9d03-6cda39fdcd0f)"><title>Path 140</title><path d="M38.27108,107.72902c1.76378,-3.95418 2.76506,-8.32063 2.76506,-12.93066c0,-17.5582 -14.23281,-31.79259 -31.79259,-31.79259c-1.76855,0 -3.49094,0.18147 -5.17991,0.45847c-0.73863,2.84624 -1.1334,5.83257 -1.1334,8.90963c0,19.52095 15.82148,35.3472 35.34084,35.35516z" fill-opacity="0" fill="#ffffff" stroke-dashoffset="0" stroke-linejoin="round" stroke-linecap="round" stroke-opacity="1" stroke="#a2cf44" stroke-miterlimit="20" stroke-width="3"></path></g><g clip-path="url(#clip-ffd7905b-80e8-4bb7-9d03-6cda39fdcd0f)"><title>Path 141</title><path d="M84.83453,107.72902c-1.76378,-3.95418 -2.76508,-8.32063 -2.76508,-12.93066c0,-17.5582 14.23281,-31.79259 31.7926,-31.79259c1.76854,0 3.49094,0.18147 5.17991,0.45847c0.73862,2.84624 1.13339,5.83257 1.13339,8.90963c0,19.52095 -15.82148,35.3472 -35.34083,35.35516z" fill-opacity="0" fill="#ffffff" stroke-dashoffset="0" stroke-linejoin="round" stroke-linecap="round" stroke-opacity="1" stroke="#a2cf44" stroke-miterlimit="20" stroke-width="3"></path></g><g clip-path="url(#clip-ffd7905b-80e8-4bb7-9d03-6cda39fdcd0f)"><title>Path 142</title><path d="M2.87961,18.18699v0h23.84285c3.83638,0 6.94846,3.29037 6.94846,7.34961v7.18406c0,4.05924 -3.11208,7.3512 -6.94846,7.3512h-23.84285v0" fill-opacity="0" fill="#ffffff" stroke-dashoffset="0" stroke-linejoin="round" stroke-linecap="round" stroke-opacity="1" stroke="#a2cf44" stroke-miterlimit="20" stroke-width="3"></path></g><g clip-path="url(#clip-ffd7905b-80e8-4bb7-9d03-6cda39fdcd0f)"><title>Path 143</title><path d="M119.71659,40.07187v0h-23.84284c-3.83638,0 -6.94846,-3.29037 -6.94846,-7.34961v-7.18407c0,-4.05923 3.11208,-7.3512 6.94846,-7.3512h23.84284v0" fill-opacity="0" fill="#ffffff" stroke-dashoffset="0" stroke-linejoin="round" stroke-linecap="round" stroke-opacity="1" stroke="#a2cf44" stroke-miterlimit="20" stroke-width="3"></path></g></g></svg>