<?xml version="1.0" encoding="UTF-8"?>
<svg id="SVGDoc" width="107" height="160" xmlns="http://www.w3.org/2000/svg" version="1.1" xmlns:xlink="http://www.w3.org/1999/xlink" xmlns:avocode="https://avocode.com/" viewBox="0 0 107 160"><defs></defs><desc>Generated with Avocode.</desc><g><g clip-path="url(#clip-286a047e-787f-44be-9c18-4516bf306d78)"><title>Path 147</title><path d="M32.16139,42.57288v0v12.8848c0,1.0179 0.57276,1.96877 1.50291,2.38519c7.57996,3.40308 12.8561,11.00537 12.8561,19.84573v8.87066v0" fill-opacity="0" fill="#ffffff" stroke-dashoffset="0" stroke-linejoin="round" stroke-linecap="round" stroke-opacity="1" stroke="#a2cf44" stroke-miterlimit="20" stroke-width="3"></path></g><g clip-path="url(#clip-286a047e-787f-44be-9c18-4516bf306d78)"><title>Path 148</title><path d="M41.19001,152.92973c0,0.06384 0,0.14362 0.01595,0.20743h-35.4029c-1.54439,0 -2.80798,-1.26361 -2.80798,-2.80798v-72.64056c0,-8.84036 5.27613,-16.44106 12.85609,-19.84573c0.93015,-0.41642 1.50291,-1.36729 1.50291,-2.38519v-12.8848v0" fill-opacity="0" fill="#ffffff" stroke-dashoffset="0" stroke-linejoin="round" stroke-linecap="round" stroke-opacity="1" stroke="#a2cf44" stroke-miterlimit="20" stroke-width="3"></path></g><g clip-path="url(#clip-286a047e-787f-44be-9c18-4516bf306d78)"><title>Path 149</title><path d="M34.07912,42.20911v0h-18.47843v0v-7.35659c0,-2.20012 1.78371,-3.98223 3.98222,-3.98223h10.51398c2.19852,0 3.98223,1.78211 3.98223,3.98223z" fill-opacity="0" fill="#ffffff" stroke-dashoffset="0" stroke-linejoin="round" stroke-linecap="round" stroke-opacity="1" stroke="#a2cf44" stroke-miterlimit="20" stroke-width="3"></path></g><g clip-path="url(#clip-286a047e-787f-44be-9c18-4516bf306d78)"><title>Path 150</title><path d="M81.23724,101.71756v51.21216c0,2.58144 -2.09322,4.67465 -4.67465,4.67465h-30.7123c-2.50484,0 -4.547,-1.97835 -4.64274,-4.46724c-0.01595,-0.06381 -0.01595,-0.14359 -0.01595,-0.20741v-51.21216c0,-2.52238 0.55682,-5.01447 1.63055,-7.29755l3.69824,-7.86076v0l4.7257,-10.0497c0.50417,-1.07214 1.58268,-1.75658 2.7681,-1.75658h14.40048c1.18541,0 2.26393,0.68443 2.7681,1.75658l8.42393,17.91046c1.07373,2.28308 1.63054,4.77516 1.63054,7.29755z" fill-opacity="0" fill="#ffffff" stroke-dashoffset="0" stroke-linejoin="round" stroke-linecap="round" stroke-opacity="1" stroke="#a2cf44" stroke-miterlimit="20" stroke-width="3"></path></g><g clip-path="url(#clip-286a047e-787f-44be-9c18-4516bf306d78)"><title>Rectangle 21</title><path d="M51.08521,66.96498c-0.99301,0 -1.798,-0.80499 -1.798,-1.798v-7.10625c0,-0.99301 0.80499,-1.798 1.798,-1.798h20.19786c0.99245,0 1.797,0.80454 1.797,1.797v7.10725c0,0.99301 -0.80499,1.798 -1.798,1.798z" fill-opacity="0" fill="#ffffff" stroke-dashoffset="0" stroke-linejoin="round" stroke-linecap="round" stroke-opacity="1" stroke="#a2cf44" stroke-miterlimit="20" stroke-width="3"></path></g><g clip-path="url(#clip-286a047e-787f-44be-9c18-4516bf306d78)"><title>Line 5</title><path d="M53.23462,74.75306v-7.78809" fill-opacity="0" fill="#ffffff" stroke-dashoffset="0" stroke-linejoin="round" stroke-linecap="round" stroke-opacity="1" stroke="#a2cf44" stroke-miterlimit="20" stroke-width="3"></path></g><g clip-path="url(#clip-286a047e-787f-44be-9c18-4516bf306d78)"><title>Line 6</title><path d="M69.13135,66.96497v7.78809" fill-opacity="0" fill="#ffffff" stroke-dashoffset="0" stroke-linejoin="round" stroke-linecap="round" stroke-opacity="1" stroke="#a2cf44" stroke-miterlimit="20" stroke-width="3"></path></g><g clip-path="url(#clip-286a047e-787f-44be-9c18-4516bf306d78)"><title>Line 7</title><path d="M104.47298,84.58506h-29.58272" fill-opacity="0" fill="#ffffff" stroke-dashoffset="0" stroke-linejoin="round" stroke-linecap="round" stroke-opacity="1" stroke="#a2cf44" stroke-miterlimit="20" stroke-width="3"></path></g><g clip-path="url(#clip-286a047e-787f-44be-9c18-4516bf306d78)"><title>Line 8</title><path d="M104.75074,104.02907h-23.33337" fill-opacity="0" fill="#ffffff" stroke-dashoffset="0" stroke-linejoin="round" stroke-linecap="round" stroke-opacity="1" stroke="#a2cf44" stroke-miterlimit="20" stroke-width="3"></path></g><g clip-path="url(#clip-286a047e-787f-44be-9c18-4516bf306d78)"><title>Line 9</title><path d="M81.00129,102.08469h-39.86058" fill-opacity="0" fill="#ffffff" stroke-dashoffset="0" stroke-linejoin="round" stroke-linecap="round" stroke-opacity="1" stroke="#a2cf44" stroke-miterlimit="20" stroke-width="3"></path></g><g clip-path="url(#clip-286a047e-787f-44be-9c18-4516bf306d78)"><title>Line 10</title><path d="M80.86249,124.02859h-39.16656" fill-opacity="0" fill="#ffffff" stroke-dashoffset="0" stroke-linejoin="round" stroke-linecap="round" stroke-opacity="1" stroke="#a2cf44" stroke-miterlimit="20" stroke-width="3"></path></g><g clip-path="url(#clip-286a047e-787f-44be-9c18-4516bf306d78)"><title>Line 11</title><path d="M42.2521,95.14036h-39.44416" fill-opacity="0" fill="#ffffff" stroke-dashoffset="0" stroke-linejoin="round" stroke-linecap="round" stroke-opacity="1" stroke="#a2cf44" stroke-miterlimit="20" stroke-width="3"></path></g><g clip-path="url(#clip-286a047e-787f-44be-9c18-4516bf306d78)"><title>Line 12</title><path d="M40.86326,113.19551h-37.63812" fill-opacity="0" fill="#ffffff" stroke-dashoffset="0" stroke-linejoin="round" stroke-linecap="round" stroke-opacity="1" stroke="#a2cf44" stroke-miterlimit="20" stroke-width="3"></path></g><g clip-path="url(#clip-286a047e-787f-44be-9c18-4516bf306d78)"><title>Path 151</title><path d="M81.55636,152.08416v0h19.66862c1.94644,0 3.52594,-1.57788 3.52594,-3.52592v-70.9175c0,-5.99727 -3.46213,-11.17609 -8.49255,-13.67455c-0.76422,-0.37973 -1.23009,-1.17586 -1.23009,-2.02782v-22.00277c0,-0.88229 -0.71637,-1.59864 -1.60023,-1.59864h-8.18941c-0.88229,0 -1.59863,0.71635 -1.59863,1.59864v22.13359c0,0.8392 -0.45152,1.62416 -1.19499,2.01025c-4.89961,2.54314 -8.25005,7.65973 -8.25005,13.56128v4.58371v0" fill-opacity="0" fill="#ffffff" stroke-dashoffset="0" stroke-linejoin="round" stroke-linecap="round" stroke-opacity="1" stroke="#a2cf44" stroke-miterlimit="20" stroke-width="3"></path></g><g clip-path="url(#clip-286a047e-787f-44be-9c18-4516bf306d78)"><title>Ellipse 5</title><path d="M55.89682,35.5486c0,-3.84265 3.11508,-6.95773 6.95773,-6.95773c3.84265,0 6.95773,3.11508 6.95773,6.95773c0,3.84265 -3.11508,6.95773 -6.95773,6.95773c-3.84265,0 -6.95773,-3.11508 -6.95773,-6.95773z" fill-opacity="0" fill="#ffffff" stroke-dashoffset="0" stroke-linejoin="round" stroke-linecap="round" stroke-opacity="1" stroke="#a2cf44" stroke-miterlimit="20" stroke-width="3"></path></g><g clip-path="url(#clip-286a047e-787f-44be-9c18-4516bf306d78)"><title>Ellipse 6</title><path d="M65.73959,16.88127c0,-2.81172 2.27935,-5.09106 5.09106,-5.09106c2.81172,0 5.09106,2.27935 5.09106,5.09106c0,2.81172 -2.27935,5.09106 -5.09106,5.09106c-2.81172,0 -5.09106,-2.27935 -5.09106,-5.09106z" fill-opacity="0" fill="#ffffff" stroke-dashoffset="0" stroke-linejoin="round" stroke-linecap="round" stroke-opacity="1" stroke="#a2cf44" stroke-miterlimit="20" stroke-width="3"></path></g><g clip-path="url(#clip-286a047e-787f-44be-9c18-4516bf306d78)"><title>Ellipse 7</title><path d="M37.73763,12.80842c0,-5.81111 4.71084,-10.52195 10.52195,-10.52195c5.81111,0 10.52195,4.71084 10.52195,10.52195c0,5.81111 -4.71084,10.52195 -10.52195,10.52195c-5.81111,0 -10.52195,-4.71084 -10.52195,-10.52195z" fill-opacity="0" fill="#ffffff" stroke-dashoffset="0" stroke-linejoin="round" stroke-linecap="round" stroke-opacity="1" stroke="#a2cf44" stroke-miterlimit="20" stroke-width="3"></path></g></g></svg>