<?xml version="1.0" encoding="UTF-8"?>
<svg id="SVGDoc" width="129" height="150" xmlns="http://www.w3.org/2000/svg" version="1.1" xmlns:xlink="http://www.w3.org/1999/xlink" xmlns:avocode="https://avocode.com/" viewBox="0 0 129 150"><defs></defs><desc>Generated with Avocode.</desc><g><g clip-path="url(#clip-54096cc2-ff60-4f52-a85d-26f510257bfe)"><title>Path 144</title><path d="M115.22441,147.75743v0h-47.84736c-6.05473,0 -10.9639,-4.90918 -10.9639,-10.96388v-104.56382c0,-6.0563 4.90917,-10.96548 10.9639,-10.96548h22.60584c7.93573,0 15.34976,3.9567 19.76755,10.54908l12.40936,18.51512c2.6261,3.91842 4.0285,8.53085 4.0285,13.24857v73.21653c0,6.0547 -4.90759,10.96388 -10.9639,10.96388z" fill-opacity="0" fill="#ffffff" stroke-dashoffset="0" stroke-linejoin="round" stroke-linecap="round" stroke-opacity="1" stroke="#a2cf44" stroke-miterlimit="20" stroke-width="3"></path></g><g clip-path="url(#clip-54096cc2-ff60-4f52-a85d-26f510257bfe)"><title>Path 145</title><path d="M104.60674,59.30602l-12.28174,-17.69189c-1.8922,-2.72342 -1.21571,-6.46474 1.50769,-8.35534c2.72343,-1.89059 6.46315,-1.21572 8.35536,1.5077l12.28172,17.69347c1.89059,2.72343 1.21413,6.46315 -1.50929,8.35375c-2.72342,1.89059 -6.46315,1.21573 -8.35374,-1.50769z" fill-opacity="0" fill="#ffffff" stroke-dashoffset="0" stroke-linejoin="round" stroke-linecap="round" stroke-opacity="1" stroke="#a2cf44" stroke-miterlimit="20" stroke-width="3"></path></g><g clip-path="url(#clip-54096cc2-ff60-4f52-a85d-26f510257bfe)"><title>Rectangle 19</title><path d="M67.51854,18.63303c-0.76878,0 -1.392,-0.62322 -1.392,-1.392v-13.83734c0,-0.76878 0.62322,-1.392 1.392,-1.392h24.31082c0.76823,0 1.391,0.62277 1.391,1.391v13.83834c0,0.76878 -0.62322,1.392 -1.392,1.392z" fill-opacity="0" fill="#ffffff" stroke-dashoffset="0" stroke-linejoin="round" stroke-linecap="round" stroke-opacity="1" stroke="#a2cf44" stroke-miterlimit="20" stroke-width="3"></path></g><g clip-path="url(#clip-54096cc2-ff60-4f52-a85d-26f510257bfe)"><title>Path 146</title><path d="M34.71671,48.67716c0,-1.0163 -0.81847,-1.84114 -1.83475,-1.84434c-3.23716,-0.00797 -9.83751,-0.02233 -12.16048,-0.02233c-3.63442,0 -12.69495,-1.34177 -12.69495,-11.32765c0,-8.7877 9.37482,-15.03865 9.37482,-15.03865v0l8.68719,-4.71932v0l3.9599,3.29938v0l-2.85266,8.83876v0l-4.19441,4.19443c-1.57471,1.57629 -0.4595,4.26781 1.76775,4.26781h11.50954c5.73243,0 11.46486,6.00685 11.46486,12.69336v88.99228c0,3.68549 -0.54564,7.23375 -2.86701,7.23375h-32.75766c-6.41368,0 -9.43067,-13.37621 -9.43067,-22.79411v-62.27179c0,-4.35396 4.29812,-9.65723 9.65563,-9.65723h20.52858c1.01789,0 1.84433,-0.82643 1.84433,-1.84433z" fill-opacity="0" fill="#ffffff" stroke-dashoffset="0" stroke-linejoin="round" stroke-linecap="round" stroke-opacity="1" stroke="#a2cf44" stroke-miterlimit="20" stroke-width="3"></path></g><g clip-path="url(#clip-54096cc2-ff60-4f52-a85d-26f510257bfe)"><title>Line 4</title><path d="M17.40104,20.4429l9.79443,7.42041" fill-opacity="0" fill="#ffffff" stroke-dashoffset="0" stroke-linejoin="round" stroke-linecap="round" stroke-opacity="1" stroke="#a2cf44" stroke-miterlimit="20" stroke-width="3"></path></g></g></svg>