<?xml version="1.0" encoding="UTF-8"?>
<svg id="SVGDoc" width="156" height="149" xmlns="http://www.w3.org/2000/svg" version="1.1" xmlns:xlink="http://www.w3.org/1999/xlink" xmlns:avocode="https://avocode.com/" viewBox="0 0 156 149"><defs></defs><desc>Generated with Avocode.</desc><g><g clip-path="url(#clip-c402555a-45a6-4832-8d50-17b4fbbc834d)"><title>Path 154</title><path d="M138.43913,62.37324v0v52.95599v0h-101.77817c-10.57939,0 -19.1549,-8.5771 -19.1549,-19.15651v-33.79948v0h-15.0227v0v84.37826v0h11.7664v0l3.2563,-16.39957v0h120.93307v0l3.00423,16.39957v0h12.01848v0v-84.37826v0z" fill-opacity="0" fill="#ffffff" stroke-dashoffset="0" stroke-linejoin="round" stroke-linecap="round" stroke-opacity="1" stroke="#a2cf44" stroke-miterlimit="20" stroke-width="3"></path></g><g clip-path="url(#clip-c402555a-45a6-4832-8d50-17b4fbbc834d)"><title>Path 155</title><path d="M59.43433,102.74754c0,-2.37242 1.329,-4.5486 3.44456,-5.61754c10.07523,-5.09586 22.06499,-8.0554 34.93544,-8.0554c11.11703,0 21.57199,2.21448 30.7075,6.09938c2.30222,0.97961 3.77322,3.26588 3.77322,5.76753v1.80603c0,3.46851 -2.81117,6.27968 -6.27968,6.27968h-60.30139c-3.46849,0 -6.27967,-2.81117 -6.27967,-6.27968z" fill-opacity="0" fill="#ffffff" stroke-dashoffset="0" stroke-linejoin="round" stroke-linecap="round" stroke-opacity="1" stroke="#a2cf44" stroke-miterlimit="20" stroke-width="3"></path></g><g clip-path="url(#clip-c402555a-45a6-4832-8d50-17b4fbbc834d)"><title>Path 156</title><path d="M49.91432,106.39156c-2.93083,4.43054 -10.97028,4.27737 -17.95673,-0.34303c-6.98485,-4.6204 -10.27306,-11.95785 -7.34223,-16.3884c2.92924,-4.43214 10.96868,-4.27899 17.95512,0.34142c6.98645,4.6204 10.27467,11.95945 7.34383,16.39001z" fill-opacity="0" fill="#ffffff" stroke-dashoffset="0" stroke-linejoin="round" stroke-linecap="round" stroke-opacity="1" stroke="#a2cf44" stroke-miterlimit="20" stroke-width="3"></path></g><g clip-path="url(#clip-c402555a-45a6-4832-8d50-17b4fbbc834d)"><title>Path 157</title><path d="M37.62143,14.88325v0l3.8849,11.95626c0.07817,0.24251 0.30473,0.40684 0.56,0.40684h12.5705c0.56958,0 0.8073,0.72912 0.34621,1.06416l-10.17095,7.3885c-0.20582,0.14997 -0.29198,0.4164 -0.2138,0.65891l3.88491,11.95626c0.17709,0.54086 -0.44353,0.99237 -0.90462,0.65733l-10.17096,-7.39009c-0.20581,-0.14998 -0.48501,-0.14998 -0.69242,0l-10.16936,7.39009c-0.46108,0.33504 -1.08171,-0.11647 -0.90621,-0.65733l3.8849,-11.95626c0.07977,-0.24251 -0.00797,-0.50895 -0.21379,-0.65891l-10.16936,-7.3885c-0.46108,-0.33504 -0.22496,-1.06416 0.34462,-1.06416h12.57209c0.25528,0 0.48023,-0.16433 0.56001,-0.40684l3.88491,-11.95626c0.17549,-0.54245 0.9429,-0.54245 1.11841,0z" fill-opacity="0" fill="#ffffff" stroke-dashoffset="0" stroke-linejoin="round" stroke-linecap="round" stroke-opacity="1" stroke="#a2cf44" stroke-miterlimit="20" stroke-width="3"></path></g><g clip-path="url(#clip-c402555a-45a6-4832-8d50-17b4fbbc834d)"><title>Path 158</title><path d="M79.16838,2.97327l3.88491,11.95625c0.07817,0.24251 0.30473,0.40684 0.56,0.40684h12.5705c0.56958,0 0.8073,0.72912 0.34622,1.06416l-10.17096,7.3885c-0.20583,0.14997 -0.29197,0.41641 -0.2138,0.65892l3.8849,11.95625c0.17709,0.54086 -0.44353,0.99237 -0.9046,0.65733l-10.17096,-7.39009c-0.20582,-0.14997 -0.48502,-0.14997 -0.69243,0l-10.16936,7.39009c-0.46107,0.33504 -1.0817,-0.11647 -0.9062,-0.65733l3.8849,-11.95625c0.07977,-0.24251 -0.00798,-0.50895 -0.21379,-0.65892l-10.16936,-7.3885c-0.46108,-0.33504 -0.22496,-1.06416 0.34462,-1.06416h12.57209c0.25528,0 0.48023,-0.16433 0.56,-0.40684l3.88332,-11.95625c0.17709,-0.54245 0.9445,-0.54245 1.12,0z" fill-opacity="0" fill="#ffffff" stroke-dashoffset="0" stroke-linejoin="round" stroke-linecap="round" stroke-opacity="1" stroke="#a2cf44" stroke-miterlimit="20" stroke-width="3"></path></g><g clip-path="url(#clip-c402555a-45a6-4832-8d50-17b4fbbc834d)"><title>Path 159</title><path d="M119.34804,16.01762v0l3.88492,11.95626c0.07817,0.2425 0.30473,0.40683 0.56,0.40683h12.5705c0.56958,0 0.80731,0.72912 0.34622,1.06416l-10.17096,7.3885c-0.20581,0.14997 -0.29196,0.41641 -0.21379,0.65892l3.88492,11.95626c0.17709,0.54086 -0.44354,0.99236 -0.90462,0.65732l-10.17096,-7.3901c-0.20581,-0.14996 -0.48502,-0.14996 -0.69243,0l-10.16936,7.3901c-0.46109,0.33504 -1.08171,-0.11646 -0.9062,-0.65732l3.88489,-11.95626c0.07979,-0.24251 -0.00797,-0.50895 -0.21379,-0.65892l-10.16934,-7.3885c-0.46109,-0.33504 -0.22498,-1.06416 0.3446,-1.06416h12.5721c0.25528,0 0.48022,-0.16433 0.56001,-0.40683l3.8833,-11.95626c0.17709,-0.54245 0.9445,-0.54245 1.12,0z" fill-opacity="0" fill="#ffffff" stroke-dashoffset="0" stroke-linejoin="round" stroke-linecap="round" stroke-opacity="1" stroke="#a2cf44" stroke-miterlimit="20" stroke-width="3"></path></g></g></svg>